<svg xmlns="http://www.w3.org/2000/svg" width="18.253" height="24.781" viewBox="0 0 18.253 24.781">
  <g id="Group_9267" data-name="Group 9267" transform="translate(-7301 -11022.5)">
    <path id="Path_67934" data-name="Path 67934" d="M250.18,3.3c0-2.531-4.262-2.531-4.262-2.531-.389,0,0-.725,0-.725-2.707-.362-3.484,1.444-3.484,1.444-2.323,0-1.918,2.531-1.918,2.531V6.883h0a4.827,4.827,0,1,0,9.654,0Zm-4.843,7.353a3.761,3.761,0,0,1-3.761-3.729l.091-2.488a3.527,3.527,0,0,1,1.55-.954c.389,1.241,5.418,2.014,5.418,2.014a2.108,2.108,0,0,1,.245.138,3.73,3.73,0,0,1-3.543,5.019Z" transform="translate(7064.791 11022.5)" fill="#4f5d75"/>
    <path id="Path_67935" data-name="Path 67935" d="M161.523,305.383h-3.73a.533.533,0,0,1,0-1.066h3.17c-.33-3.4-3.809-6.095-8.034-6.095s-7.7,2.691-8.056,6.095h3.2a.533.533,0,0,1,0,1.066h-3.73a.533.533,0,0,1-.533-.533c0-4.262,4.092-7.693,9.127-7.693s9.127,3.453,9.127,7.693h0a.533.533,0,0,1-.538.533Z" transform="translate(7157.192 10738.492)" fill="#4f5d75"/>
    <path id="Path_67936" data-name="Path 67936" d="M265.021,382.04a3.937,3.937,0,1,0,2.784,1.153A3.937,3.937,0,0,0,265.021,382.04Zm-.341,1.838h0a.474.474,0,1,1-.139.336.453.453,0,0,1,.133-.336Zm1.066,4.065H264.27V387.8a.452.452,0,0,0,.219-.08.378.378,0,0,0,.091-.288v-1.79a.384.384,0,0,0-.064-.256.454.454,0,0,0-.245-.1v-.144h1.167v2.312h0a.372.372,0,0,0,.059.256.468.468,0,0,0,.224.091Z" transform="translate(7045.106 10657.366)" fill="#4f5d75"/>
  </g>
</svg>
