<?xml version="1.0" encoding="UTF-8"?>
<svg width="15px" height="12px" viewBox="0 0 15 12" version="1.1" xmlns="http://www.w3.org/2000/svg" xmlns:xlink="http://www.w3.org/1999/xlink">
    <title>FB47C681-86A6-40F0-928B-73A714350BF2</title>
    <g id="Page-2" stroke="none" stroke-width="1" fill="none" fill-rule="evenodd">
        <g id="1.1-HomePage" transform="translate(-1192.000000, -4695.000000)">
            <g id="::-World-Class-Content-::" transform="translate(0.000000, 4457.000000)">
                <g id="Xceed-program-1-Copy" transform="translate(333.000000, 177.000000)">
                    <g id="level" transform="translate(858.000000, 57.000000)">
                        <g id="Icons/Lines/Clock-Copy-2" transform="translate(1.000000, 4.000000)">
                            <g id="download-(14)" transform="translate(0.333333, 0.000000)">
                                <path d="M2.29166667,5.66666667 L1.02604167,5.66666667 C0.487113698,5.66666667 0.0494791667,6.1043012 0.0494791667,6.64322917 L0.0494791667,10.6276042 C0.0494791667,11.1665321 0.487113698,11.6041667 1.02604167,11.6041667 L2.29166667,11.6041667 C2.83126518,11.6041667 3.26822917,11.1658623 3.26822917,10.6260417 L3.26822917,6.64322917 C3.26822917,6.1043012 2.83059464,5.66666667 2.29166667,5.66666667 Z M2.018,6.91666667 L2.018,10.354 L1.29933333,10.354 L1.29933333,6.91666667 L2.018,6.91666667 Z" id="Path" fill="#16B400"></path>
                                <path d="M7.40885417,2.85416667 L6.14479167,2.85416667 C5.6058637,2.85416667 5.16822917,3.2918012 5.16822917,3.83072917 L5.16822917,10.6276042 C5.16822917,11.1665321 5.6058637,11.6041667 6.14479167,11.6041667 L7.40885417,11.6041667 C7.94845268,11.6041667 8.38541667,11.1658623 8.38541667,10.6260417 L8.38541667,3.83072917 C8.38541667,3.2918012 7.94778214,2.85416667 7.40885417,2.85416667 Z M7.13533333,4.104 L7.13533333,10.354 L6.418,10.354 L6.418,4.104 L7.13533333,4.104 Z" id="Path" fill="#6A6A86"></path>
                                <path d="M12.5260417,0.0416666667 L11.2604167,0.0416666667 C10.7214887,0.0416666667 10.2838542,0.479301198 10.2838542,1.01822917 L10.2838542,10.6276042 C10.2838542,11.1665321 10.7214887,11.6041667 11.2604167,11.6041667 L12.5260417,11.6041667 C13.0656402,11.6041667 13.5026042,11.1658623 13.5026042,10.6260417 L13.5026042,1.01822917 C13.5026042,0.479301198 13.0649696,0.0416666667 12.5260417,0.0416666667 Z M12.252,1.29133333 L12.252,10.354 L11.5333333,10.354 L11.5333333,1.29133333 L12.252,1.29133333 Z" id="Path" fill="#6A6A86"></path>
                            </g>
                        </g>
                    </g>
                </g>
            </g>
        </g>
    </g>
</svg>