<svg xmlns="http://www.w3.org/2000/svg" width="25.594" height="16.714" viewBox="0 0 25.594 16.714">
  <path id="Path_63800" data-name="Path 63800" d="M130.505,121.68H110.232a2.663,2.663,0,0,0-2.66,2.66v11.393a2.663,2.663,0,0,0,2.66,2.66h20.273a2.663,2.663,0,0,0,2.66-2.66V124.34A2.663,2.663,0,0,0,130.505,121.68Zm-5.431,7.785,6.827-5.59a1.465,1.465,0,0,1,.082.466v11.393a1.459,1.459,0,0,1-.065.41Zm5.431-6.6a1.466,1.466,0,0,1,.6.132l-10.741,8.794-10.741-8.794a1.466,1.466,0,0,1,.6-.132Zm-21.686,13.281a1.456,1.456,0,0,1-.065-.41V124.34a1.465,1.465,0,0,1,.082-.466l6.827,5.59Zm1.413,1.068a1.46,1.46,0,0,1-.652-.158l7-6.835,3.784,3.1,3.784-3.1,7,6.835a1.461,1.461,0,0,1-.652.158H110.232Z" transform="translate(-107.572 -121.68)" fill="#7d889a"/>
</svg>
