<svg xmlns="http://www.w3.org/2000/svg" width="24" height="18.558" viewBox="0 0 24 18.558">
  <path id="Path_67819" data-name="Path 67819" d="M197.964,164.128a.289.289,0,0,0-.172.051.944.944,0,0,0-.309.223,1.019,1.019,0,0,0-.223.309l-.051.155a.471.471,0,0,0-.017.155v2.421l9.511,2.609h2.386l9.494-2.592V165.02a.47.47,0,0,0-.017-.155l-.051-.155a1.018,1.018,0,0,0-.223-.309,1.006,1.006,0,0,0-.326-.223.277.277,0,0,0-.155-.051.479.479,0,0,0-.155-.017H198.1a.338.338,0,0,0-.137.017Zm-.773,12.7a.423.423,0,0,0,.017.137l.051.155a1.1,1.1,0,0,0,.223.326,1.371,1.371,0,0,0,.326.223.277.277,0,0,0,.155.051.321.321,0,0,0,.137.034h19.554a.319.319,0,0,0,.137-.034.29.29,0,0,0,.172-.051,1.018,1.018,0,0,0,.309-.223,1.457,1.457,0,0,0,.24-.326l.051-.155a.423.423,0,0,0,.017-.137v-8.017l-8.275,2.249a1.236,1.236,0,0,0,.051.137,1.882,1.882,0,0,1,.034.326v.584a1.874,1.874,0,0,1-.034.309,2.806,2.806,0,0,1-.1.275,1.566,1.566,0,0,1-.326.447,1.431,1.431,0,0,1-.446.326,1.672,1.672,0,0,1-.275.086.971.971,0,0,1-.309.051h-2.026a.971.971,0,0,1-.309-.051.751.751,0,0,1-.275-.1,1.2,1.2,0,0,1-.446-.326,1.158,1.158,0,0,1-.309-.446.755.755,0,0,1-.1-.275,1.933,1.933,0,0,1-.034-.292v-.584a1.906,1.906,0,0,1,.034-.309l.051-.155-8.292-2.266Zm22.644.429a2.3,2.3,0,0,1-.137.412,2.5,2.5,0,0,1-.5.7,2.746,2.746,0,0,1-.687.481,1.936,1.936,0,0,1-.412.137,2.008,2.008,0,0,1-.446.069H198.1a2.011,2.011,0,0,1-.447-.069,1.933,1.933,0,0,1-.412-.137,2.686,2.686,0,0,1-.687-.5,2.464,2.464,0,0,1-.481-.687,3.832,3.832,0,0,1-.137-.412,1.828,1.828,0,0,1-.051-.429V165.021a1.866,1.866,0,0,1,.051-.446,3.81,3.81,0,0,1,.137-.412,2.746,2.746,0,0,1,.481-.687,2.614,2.614,0,0,1,.687-.481,1.3,1.3,0,0,1,.412-.137,2,2,0,0,1,.447-.051h4.7v-.669a2.345,2.345,0,0,1,.034-.343.849.849,0,0,1,.1-.292,1.708,1.708,0,0,1,.343-.5,1.923,1.923,0,0,1,.5-.36c.1-.034.206-.069.292-.1a2.305,2.305,0,0,1,.343-.034h6.919a2.3,2.3,0,0,1,.343.034c.086.034.189.069.292.1a1.928,1.928,0,0,1,.5.36,1.961,1.961,0,0,1,.36.481l.1.309a2.132,2.132,0,0,1,.034.343v.669h4.687a1.993,1.993,0,0,1,.446.051,1.3,1.3,0,0,1,.412.137,2.275,2.275,0,0,1,.687.481,1.917,1.917,0,0,1,.481.687,1.467,1.467,0,0,1,.155.412,1.867,1.867,0,0,1,.051.446v11.811a1.829,1.829,0,0,1-.051.429ZM211.7,162.805v-.7a.062.062,0,0,1-.017-.051.6.6,0,0,0-.24-.24c-.017,0-.034-.017-.051-.017h-7c-.017,0-.034.017-.069.017-.034.034-.086.068-.12.1s-.069.086-.1.12c0,.034,0,.052-.017.069v.7Zm-4.824,8.55h-.034c-.017.017-.051.034-.069.051-.017.034-.051.051-.051.086a.017.017,0,0,0-.017.017v.6a.017.017,0,0,0,.017.017l.051.1c.034.017.052.034.086.051h.017v.017H208.9v-.017h.017a.355.355,0,0,0,.1-.068.373.373,0,0,0,.051-.086c.017-.017.017-.017.017-.034v-.6l-.069-.069a.3.3,0,0,0-.086-.068h-2.06Z" transform="translate(-195.887 -160.506)" fill="#4f5d75" fill-rule="evenodd"/>
</svg>
