<svg xmlns="http://www.w3.org/2000/svg" width="15" height="15" viewBox="0 0 15 15">
  <g id="Security_Question" data-name="Security, Question" transform="translate(-7 -7)" opacity="0.9">
    <path id="Path_66282" data-name="Path 66282" d="M14.5,7A7.5,7.5,0,1,0,22,14.5,7.5,7.5,0,0,0,14.5,7Zm0,14.118A6.618,6.618,0,1,1,21.118,14.5,6.618,6.618,0,0,1,14.5,21.118Zm.882-3.088a.882.882,0,1,1-.882-.882A.882.882,0,0,1,15.382,18.029Zm1.765-5.294a2.647,2.647,0,0,1-2.206,2.612v.476a.441.441,0,1,1-.882,0v-.882A.441.441,0,0,1,14.5,14.5a1.765,1.765,0,1,0-1.765-1.765.441.441,0,0,1-.882,0,2.647,2.647,0,0,1,5.294,0Z" transform="translate(0)" fill="#4f5d75"/>
  </g>
</svg>
