<svg xmlns="http://www.w3.org/2000/svg" width="31.733" height="30.18" viewBox="0 0 31.733 30.18">
  <g id="Group_5610" data-name="Group 5610" transform="translate(0.001)">
    <path id="Path_62654" data-name="Path 62654" d="M1696.176,307.6l-11.407-.566-4.064-10.674-4.064,10.674-11.407.566,8.9,7.163-2.986,11.024,9.562-6.247,9.562,6.247-2.986-11.024Zm-6.4,17.514-.011-.007-9.062-12.2v6.279h0l-9.062,5.92,9.062-12.2-6.241,1.754,0-.008-8.425-6.784,14.664,5.038-3.861-5.588h0l3.856-10.128h0v15.716l3.861-5.588,10.819.537-.016.013-14.664,5.038,6.241,1.754Z" transform="translate(-1664.839 -295.943)" fill="#515151"/>
    <g id="Group_5584" data-name="Group 5584" transform="translate(-0.001 0)">
      <path id="Path_62655" data-name="Path 62655" d="M1687.248,322.691l-9.806-6.407-9.806,6.407,3.063-11.306-9.124-7.346,11.7-.581,4.167-10.947,4.167,10.947,11.7.581-9.123,7.346Zm-.489-.672h0Zm0,0-1.819-6.714Zm-18.634,0,9.317-6.087,9,5.878-.037-.025-8.811-11.861v5.911Zm-2.677-15.241,5.587,4.5-.025.093-2.779,10.258,8.834-11.892-6.073,1.707.044-.165Zm11.846,3.146-8.3,11.174,8.3-5.423Zm.525-.188,8.351,11.242-2.609-9.629Zm.119-.274,5.865,1.648.045.166.076-.061,8.254-6.646-.025.008Zm-14.41-4.61,7.714,6.212,5.7-1.6Zm-.765-.576.062.021,14.238,4.892-3.756-5.437Zm18.614-.237-3.558,5.15,13.546-4.654Zm-3.788-10.307V309l3.638-5.266.174.009-.035-.09Zm-3.839,10.14,3.544,5.129V294.564Zm18.766.424-.315.255.317-.255Z" transform="translate(-1661.575 -292.511)" fill="#515151"/>
    </g>
  </g>
</svg>
