<svg xmlns="http://www.w3.org/2000/svg" width="97.82" height="92.904" viewBox="0 0 97.82 92.904">
  <g id="Group_6301" data-name="Group 6301" transform="translate(-44.081 21.589)" opacity="0.59">
    <g id="Group_5475" data-name="Group 5475">
      <g id="Group_5471" data-name="Group 5471">
        <circle id="Ellipse_63" data-name="Ellipse 63" cx="3.512" cy="3.512" r="3.512" transform="translate(44.081 -21.588)" fill="#ff5976"/>
        <circle id="Ellipse_64" data-name="Ellipse 64" cx="3.512" cy="3.512" r="3.512" transform="translate(74.266 -21.588)" fill="#ff5976"/>
        <path id="Path_62525" data-name="Path 62525" d="M111.476-18.076a3.513,3.513,0,0,1-3.512,3.512,3.513,3.513,0,0,1-3.513-3.512,3.512,3.512,0,0,1,3.513-3.512A3.512,3.512,0,0,1,111.476-18.076Z" fill="#ff5976"/>
        <circle id="Ellipse_65" data-name="Ellipse 65" cx="3.512" cy="3.512" r="3.512" transform="translate(134.637 -21.588)" fill="#ff5976"/>
      </g>
      <g id="Group_5472" data-name="Group 5472">
        <circle id="Ellipse_66" data-name="Ellipse 66" cx="3.512" cy="3.512" r="3.512" transform="translate(44.081 7.038)" fill="#ff5976"/>
        <circle id="Ellipse_67" data-name="Ellipse 67" cx="3.512" cy="3.512" r="3.512" transform="translate(74.266 7.038)" fill="#ff5976"/>
        <path id="Path_62526" data-name="Path 62526" d="M111.476,10.55a3.513,3.513,0,1,1-3.512-3.512A3.513,3.513,0,0,1,111.476,10.55Z" fill="#ff5976"/>
        <circle id="Ellipse_68" data-name="Ellipse 68" cx="3.512" cy="3.512" r="3.512" transform="matrix(0.997, -0.071, 0.071, 0.997, 134.397, 7.296)" fill="#ff5976"/>
      </g>
      <g id="Group_5473" data-name="Group 5473">
        <circle id="Ellipse_69" data-name="Ellipse 69" cx="3.512" cy="3.512" r="3.512" transform="translate(44.081 35.665)" fill="#ff5976"/>
        <circle id="Ellipse_70" data-name="Ellipse 70" cx="3.512" cy="3.512" r="3.512" transform="translate(74.266 35.665)" fill="#ff5976"/>
        <path id="Path_62527" data-name="Path 62527" d="M111.476,39.177a3.513,3.513,0,1,1-3.512-3.512A3.512,3.512,0,0,1,111.476,39.177Z" fill="#ff5976"/>
        <circle id="Ellipse_71" data-name="Ellipse 71" cx="3.512" cy="3.512" r="3.512" transform="translate(134.637 35.665)" fill="#ff5976"/>
      </g>
      <g id="Group_5474" data-name="Group 5474">
        <circle id="Ellipse_72" data-name="Ellipse 72" cx="3.512" cy="3.512" r="3.512" transform="translate(44.081 64.291)" fill="#ff5976"/>
        <circle id="Ellipse_73" data-name="Ellipse 73" cx="3.512" cy="3.512" r="3.512" transform="translate(74.266 64.291)" fill="#ff5976"/>
        <path id="Path_62528" data-name="Path 62528" d="M111.476,67.8a3.513,3.513,0,1,1-3.512-3.512A3.512,3.512,0,0,1,111.476,67.8Z" fill="#ff5976"/>
        <circle id="Ellipse_74" data-name="Ellipse 74" cx="3.512" cy="3.512" r="3.512" transform="translate(134.637 64.291)" fill="#ff5976"/>
      </g>
    </g>
  </g>
</svg>
