<svg xmlns="http://www.w3.org/2000/svg" width="22.796" height="20.796" viewBox="0 0 22.796 20.796">
  <g id="Group_9422" data-name="Group 9422" transform="translate(-8368.329 -12239)" opacity="0.8">
    <path id="Path_68170" data-name="Path 68170" d="M288.241,261.022a1.246,1.246,0,0,1-1.24-1.24v-4.439a1.246,1.246,0,0,1,1.24-1.24.918.918,0,0,1,.56.16l4.2,2.24a1.231,1.231,0,0,1,0,2.159l-4.2,2.24a1.276,1.276,0,0,1-.56.12Zm0-6.079a.443.443,0,0,0-.44.44v4.439a.443.443,0,0,0,.44.44.361.361,0,0,0,.2-.04l4.2-2.24a.453.453,0,0,0,0-.8l-4.2-2.24Z" transform="translate(8089.727 11993.415)" fill="#323232"/>
    <path id="Path_68171" data-name="Path 68171" d="M161.557,165.4H141.241a1.246,1.246,0,0,1-1.24-1.24V148.242a1.246,1.246,0,0,1,1.24-1.24h20.316a1.246,1.246,0,0,1,1.24,1.24v15.917A1.246,1.246,0,0,1,161.557,165.4Zm-20.316-17.6a.444.444,0,0,0-.44.44v15.917a.444.444,0,0,0,.44.44h20.316a.444.444,0,0,0,.44-.44V148.242a.444.444,0,0,0-.44-.44Z" transform="translate(8228.328 12094.397)" fill="#323232"/>
    <path id="Path_68172" data-name="Path 68172" d="M187.6,106.6h-.8v-.36a.444.444,0,0,0-.44-.44H169.241a.444.444,0,0,0-.44.44v.36H168v-.36a1.246,1.246,0,0,1,1.24-1.24h17.117a1.246,1.246,0,0,1,1.24,1.24Z" transform="translate(8201.927 12134)" fill="#323232"/>
  </g>
</svg>
