<svg xmlns="http://www.w3.org/2000/svg" width="15" height="15" viewBox="0 0 15 15">
  <g id="Group_5793" data-name="Group 5793" transform="translate(-1.5 -1.5)">
    <g id="Group_5792" data-name="Group 5792" transform="translate(1.5 1.5)">
      <path id="Path_66263" data-name="Path 66263" d="M9,1.5A7.5,7.5,0,1,0,16.5,9,7.5,7.5,0,0,0,9,1.5Zm0,.714A6.786,6.786,0,1,1,2.214,9,6.789,6.789,0,0,1,9,2.214Z" transform="translate(-1.5 -1.5)" fill="#4f5d75" fill-rule="evenodd"/>
      <path id="Path_66264" data-name="Path 66264" d="M11.5,5.857v4.286a.357.357,0,0,0,.357.357h3.571a.357.357,0,0,0,0-.714H12.214V5.857a.357.357,0,1,0-.714,0Z" transform="translate(-4.357 -2.643)" fill="#4f5d75" fill-rule="evenodd"/>
    </g>
  </g>
</svg>
