<svg xmlns="http://www.w3.org/2000/svg" width="22.667" height="22.667" viewBox="0 0 22.667 22.667">
  <g id="Group_9301" data-name="Group 9301" transform="translate(-8739 -11996)">
    <path id="Path_68164" data-name="Path 68164" d="M280.474,170.258a.459.459,0,0,1-.224-.058.468.468,0,0,1-.248-.415v-8.725a.473.473,0,0,1,.732-.393l6.611,4.363a.471.471,0,0,1,0,.788l-6.611,4.363a.469.469,0,0,1-.26.077Zm.472-8.319v6.971l5.281-3.484-5.281-3.487Z" transform="translate(8467.498 11841.91)" fill="#4f5d75"/>
    <path id="Path_68165" data-name="Path 68165" d="M81.333.944A10.389,10.389,0,1,1,70.944,11.334,10.4,10.4,0,0,1,81.333.944Zm0-.944A11.333,11.333,0,1,0,92.667,11.333,11.334,11.334,0,0,0,81.333,0Z" transform="translate(8669 11996)" fill="#4f5d75"/>
  </g>
</svg>
