<svg xmlns="http://www.w3.org/2000/svg" width="20.155" height="20.156" viewBox="0 0 20.155 20.156">
  <g id="Group_9268" data-name="Group 9268" transform="translate(-8181.792 -12240)">
    <path id="Path_67875" data-name="Path 67875" d="M182.2,102.12a10.076,10.076,0,0,0-8.616,15.3l-1.441,4.323a.4.4,0,0,0,.51.51l4.323-1.441A10.077,10.077,0,1,0,182.2,102.12Zm0,19.35a9.24,9.24,0,0,1-4.957-1.438.4.4,0,0,0-.343-.042l-3.737,1.246,1.246-3.737a.4.4,0,0,0-.042-.343,9.27,9.27,0,1,1,7.833,4.315Z" transform="translate(8009.672 12137.88)" fill="#4f5d75"/>
    <path id="Path_67876" data-name="Path 67876" d="M268.289,143.035a4.919,4.919,0,0,0-5.107,4.915.4.4,0,0,0,.4.4h1.868a.4.4,0,0,0,.4-.4,2.244,2.244,0,0,1,2.244-2.244l.088,0a2.279,2.279,0,0,1,2.154,2.154,2.242,2.242,0,0,1-1.459,2.192,3.187,3.187,0,0,0-2.121,2.989v1.37a.4.4,0,0,0,.4.4h1.868a.4.4,0,0,0,.4-.4v-1.37a.538.538,0,0,1,.381-.482,4.919,4.919,0,0,0-1.529-9.524Zm1.248,8.769a1.334,1.334,0,0,0-.905,1.238v.967H267.57v-.967a2.387,2.387,0,0,1,1.6-2.233,3.047,3.047,0,0,0,1.983-2.978,3.1,3.1,0,0,0-2.93-2.928l-.118,0a3.052,3.052,0,0,0-3.024,2.647h-1.069a4.114,4.114,0,0,1,4.091-3.709l.162,0a4.113,4.113,0,0,1,1.276,7.964Z" transform="translate(7923.769 12099.286)" fill="#4f5d75"/>
    <path id="Path_67877" data-name="Path 67877" d="M328.657,369.76h-1.868a.4.4,0,0,0-.4.4v1.868a.4.4,0,0,0,.4.4h1.868a.4.4,0,0,0,.4-.4v-1.868A.4.4,0,0,0,328.657,369.76Zm-.4,1.868h-1.062v-1.062h1.062Z" transform="translate(7864.146 11885.402)" fill="#4f5d75"/>
  </g>
</svg>
