<svg xmlns="http://www.w3.org/2000/svg" width="24" height="21.583" viewBox="0 0 24 21.583">
  <path id="noun-businessman-474127" d="M117.019,73.527,122,68.544l-3.738-3.737-1.246,1.246-1.246-1.246-.349.349a.868.868,0,0,0-.684-.349h-2.775L109.7,61.026a2.648,2.648,0,1,0-3.078-.623h-5.95l-2.29,5.15a.883.883,0,0,0,.447,1.164l.8.358a.883.883,0,0,0,1.164-.447l1.593-3.582h1.674l-1.652,4.4v4.4H98.884a.88.88,0,0,0-.881.881v.881a.88.88,0,0,0,.881.881h5.286a1.762,1.762,0,0,0,1.762-1.762v-3l6.025,7.363A1.322,1.322,0,1,0,114,75.423l-6.37-7.787,1.053-3.159,1.784,2.973h2.964l1.094,1.094-1.246,1.246Zm-1.4-6.958V66.2l.152-.152.623.623-1.246,1.246-.471-.471h.062a.884.884,0,0,0,.881-.881Zm-7.047-9.69a1.762,1.762,0,1,1-1.762,1.762A1.764,1.764,0,0,1,108.575,56.879Zm2.394,9.69-2.513-4.188-1.813,5.437,6.677,8.162a.442.442,0,0,1-.062.621.432.432,0,0,1-.277.1.442.442,0,0,1-.343-.162l-7.587-9.273v5.471a.881.881,0,0,1-.881.881H98.884v-.881h4.4V67.611l2.042-5.446h-3.518L99.988,66.27l-.8-.358,2.056-4.628h7.583l2.643,4.4h3.275v.881Zm7.3-.516,2.491,2.491-3.737,3.737-2.491-2.491Z" transform="translate(-98.003 -55.998)" fill="#4f5d75"/>
</svg>
