<svg xmlns="http://www.w3.org/2000/svg" width="40.552" height="31.163" viewBox="0 0 40.552 31.163">
  <g id="noun-study-group-4251380" transform="translate(-100.966 -88.577)">
    <path id="Path_63791" data-name="Path 63791" d="M136.28,220.508a5.527,5.527,0,1,0-5.548,0,7.943,7.943,0,0,0-4.467,4.121,7.9,7.9,0,0,0-2.252-1.272,5.53,5.53,0,1,0-5.552,0,7.892,7.892,0,0,0-2.252,1.272,7.965,7.965,0,0,0-4.472-4.121,5.525,5.525,0,1,0-5.543,0A8,8,0,0,0,100.966,228a.63.63,0,0,0,.634.634h11.952a7.913,7.913,0,0,0-.319,2.215.639.639,0,0,0,.638.634h14.742a.638.638,0,0,0,.634-.634,8.075,8.075,0,0,0-.314-2.215h11.952a.632.632,0,0,0,.634-.634,8.022,8.022,0,0,0-5.238-7.494Zm-7.038-4.754a4.264,4.264,0,1,1,4.362,4.258c-.032,0-.064-.009-.1-.009a.531.531,0,0,0-.086,0,4.257,4.257,0,0,1-4.18-4.253ZM116.975,218.6a4.262,4.262,0,1,1,4.376,4.248h-.223a4.263,4.263,0,0,1-4.153-4.248Zm-12.267-2.849a4.262,4.262,0,1,1,4.348,4.258c-.032,0-.055-.009-.086-.009s-.064,0-.1,0a4.256,4.256,0,0,1-4.162-4.253Zm-2.448,11.619a6.748,6.748,0,0,1,6.632-6.1c.027,0,.05.009.078.009s.055-.009.086-.009a6.721,6.721,0,0,1,6.181,4.3,7.583,7.583,0,0,0-1.2,1.8Zm12.267,2.849a6.741,6.741,0,0,1,6.619-6.1c.032,0,.059.009.091.009s.059-.009.091-.009a6.745,6.745,0,0,1,6.619,6.1Zm13.908-2.849a7.576,7.576,0,0,0-1.2-1.8,6.694,6.694,0,0,1,6.181-4.3c.027,0,.055.009.082.009s.055-.009.078-.009a6.755,6.755,0,0,1,6.637,6.1Z" transform="translate(0 -111.745)" fill="#515151"/>
    <path id="Path_63792" data-name="Path 63792" d="M257.871,96.974c.068,0,.16.018.242.018v2.129a.635.635,0,0,0,.634.634H270.88a.635.635,0,0,0,.634-.634V96.993c.15-.009.237-.018.246-.018a.631.631,0,0,0,.6-.634V89.248a.635.635,0,0,0-.579-.634,10.571,10.571,0,0,0-6.965,1.942,10.548,10.548,0,0,0-6.97-1.942.628.628,0,0,0-.579.634v7.1a.631.631,0,0,0,.606.629Zm1.5.178a10.739,10.739,0,0,1,3.829,1.327h-3.829Zm10.872,1.326h-3.861a10.365,10.365,0,0,1,3.866-1.327v1.327Zm-11.72-8.629a9.849,9.849,0,0,1,5.866,1.987.649.649,0,0,0,.839,0,9.86,9.86,0,0,1,5.862-1.987v5.9c-1.34.146-4.545.643-6.281,2.38-1.741-1.737-4.946-2.234-6.286-2.375Z" transform="translate(-143.576 0)" fill="#515151"/>
    <path id="Path_63793" data-name="Path 63793" d="M343.487,140.427v-3.989a.634.634,0,1,0-1.267,0v3.989a.634.634,0,1,0,1.267,0Z" transform="translate(-221.616 -43.383)" fill="#515151"/>
  </g>
</svg>
