<svg xmlns="http://www.w3.org/2000/svg" width="26.579" height="31.433" viewBox="0 0 26.579 31.433">
  <g id="Group_6534" data-name="Group 6534" transform="translate(12372.832 7892.215)">
    <path id="Path_63637" data-name="Path 63637" d="M316.95,358.467c0,.028,0,.053,0,.081,0-.123.007-.042,0,0s-.014.053-.021.077-.039.095-.01.032-.056.088-.07.116-.06.07.007-.007l-.084.095a1.322,1.322,0,0,1-.13.116c.081-.063-.053.032-.081.049-.056.032-.112.06-.168.091-.137.07.053-.018-.035.014l-.119.042c-.074.025-.151.042-.228.06l-.105.021c-.088.014.07-.007-.021,0a2.744,2.744,0,0,1-.536,0c.081.01-.116-.025-.133-.028-.07-.014-.137-.035-.207-.056-.018-.007-.2-.081-.116-.042-.074-.035-.147-.074-.217-.116l-.081-.053c-.123-.081.042.042-.021-.017-.046-.042-.088-.081-.13-.126-.021-.021-.074-.1-.014-.011-.014-.025-.032-.046-.046-.07l-.042-.074c-.046-.084.011.07-.025-.07a.5.5,0,0,1-.014-.154c0-.095,0,0-.007.021.007-.025.01-.053.018-.077a.5.5,0,0,0,.021-.077c.032-.116-.042.053,0,0s.06-.109.095-.158c-.07.1.049-.049.07-.07s.172-.133.081-.074a1.479,1.479,0,0,1,.158-.1c.028-.014.056-.032.084-.046.007,0,.147-.063.053-.028a2.57,2.57,0,0,1,.4-.116c.035-.007.07-.014.105-.018-.088.011.028,0,.049,0,.084-.007.172-.007.259-.007a1.738,1.738,0,0,1,.918.27.849.849,0,0,1,.091.063c-.063-.049.056.056.056.056.025.025.046.049.07.074.07.074-.014-.042.039.053.014.028.032.056.049.084.046.084,0-.025.011.028s.021.077.032.112c-.014-.091.007.007.007.049a.526.526,0,1,0,1.052,0,2.019,2.019,0,0,0-1.812-1.788,2.8,2.8,0,0,0-2.447.659,1.639,1.639,0,0,0-.487,1.052,1.6,1.6,0,0,0,.5,1.227,2.822,2.822,0,0,0,2.5.631,2.007,2.007,0,0,0,1.746-1.774.528.528,0,0,0-1.055-.007Z" transform="translate(-12675.175 -8228.22)" fill="#515151"/>
    <path id="Path_63638" data-name="Path 63638" d="M192.1,465.978H170.774a1.411,1.411,0,0,0-.3,0s-.014,0-.018,0l.1.042a.142.142,0,0,1,.144.144c.014.035.028.07.042.1a.117.117,0,0,0,0-.035,3.811,3.811,0,0,0,0-.529V464.1c0-.074,0-.151,0-.224a.263.263,0,0,0,0-.053c.028.074-.165.3-.291.28a.229.229,0,0,0,.049,0c.123.007.245,0,.368,0h21.105a.527.527,0,0,0,.105,0s.014,0,.018,0c.039,0,0-.014-.1-.042-.035-.014-.07-.028-.1-.042-.028-.07-.056-.137-.084-.207-.007.007,0,.035,0,.042-.018.175,0,.361,0,.536v1.577c0,.077,0,.154,0,.228a.151.151,0,0,0,0,.056v.011c.014-.035.028-.07.042-.1.014-.112.1-.175.242-.179a.537.537,0,0,0-.526.526.53.53,0,0,0,.526.526.8.8,0,0,0,.761-.848v-2.208a.862.862,0,0,0-.386-.82.838.838,0,0,0-.41-.1c-.116,0-.231,0-.347,0H171.59c-.361,0-.726-.007-1.087,0a.8.8,0,0,0-.806.855v2.222a.832.832,0,0,0,.466.841,1.106,1.106,0,0,0,.463.063H192.1a.532.532,0,0,0,.526-.526.543.543,0,0,0-.529-.529Z" transform="translate(-12540.821 -8327.815)" fill="#515151"/>
    <path id="Path_63639" data-name="Path 63639" d="M276.2,40.188c0,.123,0,.245-.014.372,0,.056-.011.116-.014.172,0,.032-.007.067-.011.1.011-.077,0-.011-.007.032a4.881,4.881,0,0,1-.168.712c-.035.116-.077.231-.119.344-.011.021-.018.046-.028.067-.032.077.032-.067,0,.007s-.06.133-.091.2a5.28,5.28,0,0,1-.358.627c-.063.095-.126.186-.2.273.053-.074-.046.056-.067.081-.042.049-.084.1-.126.144a4.895,4.895,0,0,1-.529.515c-.042.035-.084.07-.13.105.081-.063-.067.049-.084.06-.1.07-.2.133-.3.2s-.2.119-.308.175c-.049.025-.1.049-.151.074a.659.659,0,0,1-.088.039c-.081.035.112-.042-.028.011a4.55,4.55,0,0,1-.684.214c-.063.014-.126.028-.189.039l-.123.021-.028,0-.1.011c-.067.007-.13.011-.2.014a3.282,3.282,0,0,1-.372,0l-.172-.011-.1-.011s-.14-.018-.074-.007c.049.007-.095-.018-.123-.021-.063-.011-.126-.025-.189-.039-.123-.028-.249-.063-.368-.1s-.21-.074-.312-.112c-.018-.007-.091-.042-.007,0-.028-.014-.056-.025-.088-.039l-.172-.084a4.681,4.681,0,0,1-.606-.372c-.018-.011-.161-.123-.084-.06l-.13-.105c-.1-.081-.193-.168-.284-.256s-.168-.172-.249-.259c-.039-.042-.074-.084-.109-.126l-.046-.056s-.084-.105-.049-.06-.025-.032-.032-.042-.028-.039-.042-.06c-.039-.053-.074-.105-.109-.158-.07-.109-.137-.217-.2-.329s-.109-.2-.158-.3c-.028-.06-.056-.116-.081-.175,0,0-.032-.077-.011-.025s-.025-.06-.028-.074a5.361,5.361,0,0,1-.217-.7c-.028-.119-.053-.238-.07-.358,0-.014-.018-.116-.007-.053s0-.021,0-.028l-.021-.221a5.048,5.048,0,0,1,0-.764c0-.056.011-.112.018-.168s0,.011,0,.021c0-.032.011-.063.014-.095.021-.126.046-.249.077-.375a4.971,4.971,0,0,1,.217-.669c-.039.1.032-.067.039-.088.025-.049.046-.1.07-.147.056-.109.116-.217.179-.322s.116-.182.175-.27l.053-.074c.007-.011.067-.088.028-.039s.01-.014.014-.021c.025-.028.049-.06.074-.088a4.87,4.87,0,0,1,.494-.512c.081-.07.161-.14.245-.207-.084.067.06-.042.077-.056.049-.035.1-.07.154-.105a4.861,4.861,0,0,1,.606-.337c.021-.011.189-.081.088-.039.049-.021.1-.039.154-.06q.179-.063.358-.116t.347-.084l.165-.032.07-.011c.151-.025-.06.007.028,0a5,5,0,0,1,.761-.028c.112,0,.228.014.34.025s.025,0,0,0c.032,0,.063.011.095.014.063.011.126.021.189.035a5.023,5.023,0,0,1,.7.2c.053.018.1.039.154.06-.091-.039.039.018.067.032.112.053.224.109.333.168s.2.116.3.179c.046.028.091.06.133.091.021.014.179.133.1.067a4.266,4.266,0,0,1,.512.463c.081.084.158.168.231.256.035.042.07.084.1.126-.063-.081.039.053.056.077a4.739,4.739,0,0,1,.368.613c.025.049.049.1.07.147.01.021.081.189.039.088.042.109.084.217.119.329a4.61,4.61,0,0,1,.172.715c0,.032.01.063.014.095,0-.007-.01-.084,0-.021s.011.112.018.168a2.231,2.231,0,0,1,.028.4.526.526,0,1,0,1.052,0,5.37,5.37,0,0,0-10.726-.393,5.8,5.8,0,0,0,3.1,5.5,5.03,5.03,0,0,0,3.34.428,5.7,5.7,0,0,0,4.217-4.662,6.673,6.673,0,0,0,.074-.876.532.532,0,0,0-.526-.526.537.537,0,0,0-.529.526Z" transform="translate(-12631.424 -7927.032)" fill="#515151"/>
    <path id="Path_63640" data-name="Path 63640" d="M168.6,293.185c-.133.82-.263,1.64-.4,2.461q-.384,2.377-.764,4.75-.252,1.577-.508,3.155a.38.38,0,0,0-.014.088s.221-.242.27-.175a.505.505,0,0,0-.126,0H145.548a.334.334,0,0,0-.06,0h-.011c.018,0,.312.1.273.186.018-.035-.025-.161-.032-.2-.182-1.143-.368-2.289-.55-3.432q-.379-2.345-.754-4.694l-.263-1.63c-.021-.14-.046-.277-.067-.417a.354.354,0,0,0-.014-.084v-.007c0-.032,0,0,0,.095a.223.223,0,0,1-.172.256c-.656.277-.119.035-.1.046s.091,0,.119,0H168.6c.07,0,.14,0,.207,0a.263.263,0,0,0,.053,0h.014c.039,0,0-.014-.105-.046-.088-.038-.2-.095-.189-.21a.526.526,0,1,0,1.052,0,.772.772,0,0,0-.789-.8h-24.7c-.112,0-.228-.007-.34,0a.776.776,0,0,0-.74.936.271.271,0,0,1,.007.053c.021.123.039.245.06.372q.31,1.94.624,3.88.373,2.313.743,4.627c.07.445.144.89.214,1.336.011.067.018.133.032.2a.783.783,0,0,0,.778.585c.6.014,1.209,0,1.816,0H167.19a.774.774,0,0,0,.75-.659c.06-.365.116-.726.175-1.09q.363-2.245.722-4.487.331-2.072.666-4.147c.035-.224.07-.445.109-.669a.544.544,0,0,0-.368-.648.533.533,0,0,0-.648.368Z" transform="translate(-12515.881 -8168.227)" fill="#515151"/>
    <path id="Path_63641" data-name="Path 63641" d="M237.887,230.835H224.363c-.62,0-1.255-.035-1.875,0h-.028c.168.221.337.445.508.666l.147-.747c.018-.084.035-.168.06-.252.018-.063.039-.126.06-.189.011-.028.074-.193.035-.105a3.268,3.268,0,0,1,.365-.634c.06-.084.021-.028.007-.011l.063-.074c.039-.042.074-.084.112-.126a2.923,2.923,0,0,1,.284-.266c.01-.007.088-.07.042-.035s.021-.014.025-.018c.053-.039.105-.074.161-.109a3.279,3.279,0,0,1,.344-.189c.028-.014.06-.028.091-.042-.011,0-.067.028-.011,0s.109-.042.165-.06.109-.035.165-.049l.266-.077,1.514-.431.775-.221a3.683,3.683,0,0,1,.908-.189c1.034-.025,2.072,0,3.106,0a5.726,5.726,0,0,1,1.542.326l1.364.389c.238.067.477.137.715.2l.14.042c.056.018.109.039.165.06.014.007.091.039.011,0l.112.053a2.9,2.9,0,0,1,.322.179c.049.032.095.063.14.095l.06.042c-.074-.056.014.011.028.025a2.986,2.986,0,0,1,.266.249l.116.126.063.074c.035.042-.032-.049.021.028a3.457,3.457,0,0,1,.365.634c-.039-.088.028.084.035.105.018.056.035.109.053.165a2.522,2.522,0,0,1,.067.28c.028.137.056.277.081.414l.063.326a.527.527,0,0,0,1.017-.28c-.049-.249-.1-.5-.147-.75a3.669,3.669,0,0,0-.624-1.427,3.882,3.882,0,0,0-1.283-1.139,4.716,4.716,0,0,0-.964-.368l-1.605-.459a9.524,9.524,0,0,0-1.809-.442c-.5-.042-1.02-.011-1.525-.011h-1.76a6.667,6.667,0,0,0-1.844.379l-1.43.41c-.207.06-.414.116-.62.179a3.925,3.925,0,0,0-1.479.813,3.652,3.652,0,0,0-.957,1.321,5.722,5.722,0,0,0-.322,1.157c-.021.116-.046.228-.067.344a.533.533,0,0,0,.508.666H235.99c.624,0,1.251.018,1.875,0h.028a.532.532,0,0,0,.526-.526.546.546,0,0,0-.533-.529Z" transform="translate(-12589.722 -8106.532)" fill="#515151"/>
  </g>
</svg>
