<svg xmlns="http://www.w3.org/2000/svg" width="30.847" height="30.536" viewBox="0 0 30.847 30.536">
  <path id="Path_62565" data-name="Path 62565" d="M21.924,7.014a4.345,4.345,0,0,0-1.732.36l-.167.072a3.388,3.388,0,0,0-2.033,3.1V13.5a2.871,2.871,0,0,0,1.624,2.582h0l1.08.517a2.83,2.83,0,0,0,2.452,0l1.08-.517h0A2.871,2.871,0,0,0,25.855,13.5v-.248h6.956a2.721,2.721,0,0,1,2.722,2.722v12.3A2.721,2.721,0,0,1,32.811,31H11.036a2.724,2.724,0,0,1-1.924-.8h0a2.724,2.724,0,0,1-.8-1.924V16.027a2.721,2.721,0,0,1,.81-1.939h0a2.718,2.718,0,0,1,1.949-.783l3.473.051a.907.907,0,1,0,.026-1.815l-3.472-.05a4.534,4.534,0,0,0-4.6,4.535V28.279a4.539,4.539,0,0,0,1.328,3.207h0a4.539,4.539,0,0,0,3.207,1.328H32.811a4.539,4.539,0,0,0,3.207-1.328h0a4.539,4.539,0,0,0,1.328-3.207v-12.3a4.539,4.539,0,0,0-1.328-3.207h0a4.539,4.539,0,0,0-3.207-1.328H25.855v-.89a3.388,3.388,0,0,0-2.033-3.1l-.167-.072A4.345,4.345,0,0,0,21.924,7.014Zm0,1.815a2.532,2.532,0,0,1,1.009.21h0l.162.071h0a1.564,1.564,0,0,1,.943,1.439V13.5a1.044,1.044,0,0,1-.6.946l-1.081.519a1.015,1.015,0,0,1-.881,0L20.4,14.447h0a1.045,1.045,0,0,1-.594-.946V10.548a1.564,1.564,0,0,1,.943-1.439h0l.162-.071h0A2.532,2.532,0,0,1,21.924,8.828ZM18.6,16.985a.907.907,0,0,0-.357.073L15.087,18.41h0a5.7,5.7,0,0,0-3.428,5.751c.147,1.616.289,3.188.289,3.188a.907.907,0,0,0,1.807-.163s-.142-1.573-.289-3.19A3.872,3.872,0,0,1,15.8,20.078l3.154-1.351a.907.907,0,0,0-.359-1.741Zm6.649,0a.907.907,0,0,0-.352,1.741l3.154,1.351A3.872,3.872,0,0,1,30.382,24c-.147,1.616-.289,3.19-.289,3.19a.907.907,0,0,0,1.807.163s.142-1.572.289-3.188a5.7,5.7,0,0,0-3.428-5.751h0l-3.152-1.351A.907.907,0,0,0,25.244,16.985ZM21.319,18.2a.907.907,0,0,0-.641,1.549l.339.339v3.556a.907.907,0,1,0,1.815,0V20.083l.339-.339a.907.907,0,0,0-.641-1.549Zm-1.21,9.678a.907.907,0,0,0,0,1.815h3.629a.907.907,0,0,0,0-1.815ZM16.48,33.316a2.126,2.126,0,0,0-1.9,1.21H9.222a.907.907,0,0,0,0,1.815h5.356a2.126,2.126,0,0,0,1.9,1.21,2.065,2.065,0,0,0,1.859-1.21H34.625a.907.907,0,0,0,0-1.815H18.339A2.067,2.067,0,0,0,16.48,33.316Zm0,1.815a.3.3,0,1,1-.3.3A.29.29,0,0,1,16.48,35.131Z" transform="translate(-6.5 -7.014)" fill="#ff5975"/>
</svg>
