<svg xmlns="http://www.w3.org/2000/svg" width="24" height="23.758" viewBox="0 0 24 23.758">
  <g id="Group_9111" data-name="Group 9111" transform="translate(0 0)" opacity="0.9">
    <path id="Path_63553" data-name="Path 63553" d="M138.869,61.371a3.38,3.38,0,0,0-1.347.28l-.13.056a2.636,2.636,0,0,0-1.582,2.414v2.3a2.233,2.233,0,0,0,1.264,2.009h0l.84.4a2.2,2.2,0,0,0,1.908,0l.84-.4h0a2.233,2.233,0,0,0,1.264-2.009v-.193h5.412a2.117,2.117,0,0,1,2.118,2.118v9.574a2.117,2.117,0,0,1-2.118,2.118H130.4a2.119,2.119,0,0,1-1.5-.62h0a2.119,2.119,0,0,1-.62-1.5V68.384a2.117,2.117,0,0,1,.63-1.508h0a2.114,2.114,0,0,1,1.516-.609l2.7.039a.706.706,0,1,0,.02-1.412l-2.7-.039a3.528,3.528,0,0,0-3.581,3.529v9.532a3.53,3.53,0,0,0,1.033,2.5h0a3.53,3.53,0,0,0,2.5,1.033H147.34a3.53,3.53,0,0,0,2.5-1.033h0a3.531,3.531,0,0,0,1.033-2.5V68.342a3.531,3.531,0,0,0-1.033-2.5h0a3.53,3.53,0,0,0-2.5-1.033h-5.412v-.692a2.636,2.636,0,0,0-1.582-2.414l-.13-.056a3.38,3.38,0,0,0-1.348-.28Zm0,1.412a1.97,1.97,0,0,1,.785.163h0l.126.055h0a1.217,1.217,0,0,1,.733,1.12v2.3a.813.813,0,0,1-.463.736l-.841.4a.79.79,0,0,1-.686,0l-.841-.4h0a.812.812,0,0,1-.462-.736v-2.3a1.217,1.217,0,0,1,.733-1.12h0l.126-.055h0a1.97,1.97,0,0,1,.785-.163Zm-2.589,6.346a.7.7,0,0,0-.278.057l-2.452,1.051h0a4.436,4.436,0,0,0-2.667,4.474c.115,1.257.225,2.481.225,2.481a.706.706,0,0,0,1.406-.127s-.111-1.224-.225-2.482a3.013,3.013,0,0,1,1.817-3.049l2.454-1.051a.706.706,0,0,0-.279-1.355Zm5.173,0a.706.706,0,0,0-.274,1.355l2.454,1.051a3.013,3.013,0,0,1,1.817,3.049c-.114,1.257-.225,2.482-.225,2.482a.706.706,0,0,0,1.406.127s.111-1.223.225-2.481a4.436,4.436,0,0,0-2.667-4.474h0l-2.452-1.051a.709.709,0,0,0-.283-.057Zm-3.054.941a.706.706,0,0,0-.5,1.205l.264.264v2.767a.706.706,0,1,0,1.412,0V71.539l.264-.264a.706.706,0,0,0-.5-1.205Zm-.941,7.529a.706.706,0,1,0,0,1.412h2.824a.706.706,0,1,0,0-1.412Zm-2.824,4.235a1.654,1.654,0,0,0-1.48.941h-4.167a.706.706,0,0,0,0,1.412h4.167a1.654,1.654,0,0,0,1.48.941,1.607,1.607,0,0,0,1.447-.941h12.671a.706.706,0,1,0,0-1.412H136.081A1.608,1.608,0,0,0,134.634,81.835Zm0,1.412a.235.235,0,1,1-.235.235A.225.225,0,0,1,134.634,83.246Z" transform="translate(-126.869 -61.371)" fill="#4f5d75"/>
  </g>
</svg>
