<svg id="Menu_Icon" data-name="Menu Icon" xmlns="http://www.w3.org/2000/svg" width="29" height="29" viewBox="0 0 29 29">
  <path id="bound" d="M0,0H29V29H0Z" fill="none"/>
  <path id="Combined_Shape" data-name="Combined Shape" d="M1.5,16A1.5,1.5,0,0,1,0,14.5v-.693a1.5,1.5,0,0,1,1.5-1.5h16a1.5,1.5,0,0,1,1.5,1.5V14.5A1.5,1.5,0,0,1,17.5,16Zm0-6.153A1.5,1.5,0,0,1,0,8.347V7.654a1.5,1.5,0,0,1,1.5-1.5h8.875a1.5,1.5,0,0,1,1.5,1.5v.693a1.5,1.5,0,0,1-1.5,1.5Zm0-6.154A1.5,1.5,0,0,1,0,2.192V1.5A1.5,1.5,0,0,1,1.5,0h16A1.5,1.5,0,0,1,19,1.5v.692a1.5,1.5,0,0,1-1.5,1.5Z" transform="translate(5 6)" fill="#515151"/>
</svg>
