<svg xmlns="http://www.w3.org/2000/svg" width="23" height="23" viewBox="0 0 23 23">
  <g id="Security_Question" data-name="Security, Question" transform="translate(-7 -7)">
    <path id="Path_66282" data-name="Path 66282" d="M18.5,7A11.5,11.5,0,1,0,30,18.5,11.5,11.5,0,0,0,18.5,7Zm0,21.647A10.147,10.147,0,1,1,28.647,18.5,10.147,10.147,0,0,1,18.5,28.647Zm1.353-4.735A1.353,1.353,0,1,1,18.5,22.559,1.353,1.353,0,0,1,19.853,23.912Zm2.706-8.118a4.059,4.059,0,0,1-3.382,4v.731a.676.676,0,1,1-1.353,0V19.176A.676.676,0,0,1,18.5,18.5a2.706,2.706,0,1,0-2.706-2.706.676.676,0,0,1-1.353,0,4.059,4.059,0,0,1,8.118,0Z" transform="translate(0 0)" fill="#4f5d75"/>
  </g>
</svg>
