<svg xmlns="http://www.w3.org/2000/svg" width="24.001" height="29.835" viewBox="0 0 24.001 29.835">
  <g id="Group_9269" data-name="Group 9269" transform="translate(-8742 -12028.5)">
    <path id="Path_67898" data-name="Path 67898" d="M192.851,77.714h-6.169a.357.357,0,0,1-.352-.352v-.85a6.578,6.578,0,0,0-2.349-5.023,9.005,9.005,0,1,1,11.549.028,6.475,6.475,0,0,0-2.326,5v.846a.357.357,0,0,1-.352.352Zm-5.835-.7H192.5v-.47h0a7.2,7.2,0,0,1,2.575-5.54,8.264,8.264,0,0,0,2.984-6.757,8.311,8.311,0,1,0-13.654,6.7,7.278,7.278,0,0,1,2.612,5.563Z" transform="translate(8564.245 11975.913)" fill="#4f5d75"/>
    <path id="Path_67899" data-name="Path 67899" d="M343.739,2.166a.357.357,0,0,1-.352-.353V.352a.352.352,0,0,1,.7,0V1.813a.352.352,0,0,1-.352.353Z" transform="translate(8410.261 12028.501)" fill="#4f5d75"/>
    <path id="Path_67900" data-name="Path 67900" d="M235.269,31.621a.357.357,0,0,1-.305-.178l-.728-1.264a.352.352,0,0,1,.127-.47.357.357,0,0,1,.47.132l.728,1.264a.353.353,0,0,1-.127.47A.405.405,0,0,1,235.269,31.621Z" transform="translate(8513.638 12000.412)" fill="#4f5d75"/>
    <path id="Path_67901" data-name="Path 67901" d="M155.786,111.106a.354.354,0,0,1-.179-.047l-1.264-.728a.357.357,0,0,1-.132-.47.353.353,0,0,1,.47-.127l1.264.728h0a.352.352,0,0,1-.174.658Z" transform="translate(8589.396 11924.653)" fill="#4f5d75"/>
    <path id="Path_67902" data-name="Path 67902" d="M510.566,315.4a.346.346,0,0,1-.174-.047l-1.264-.747a.353.353,0,0,1,.352-.611l1.269.733h0a.348.348,0,0,1,.127.47.357.357,0,0,1-.31.2Z" transform="translate(8253.518 11731.281)" fill="#4f5d75"/>
    <path id="Path_67903" data-name="Path 67903" d="M126.574,219.328h-1.461a.352.352,0,0,1,0-.7h1.461a.352.352,0,1,1,0,.7Z" transform="translate(8617.239 11821.524)" fill="#4f5d75"/>
    <path id="Path_67904" data-name="Path 67904" d="M536.391,219.328h-1.461a.352.352,0,1,1,0-.7h1.461a.352.352,0,1,1,0,.7Z" transform="translate(8229.258 11821.524)" fill="#4f5d75"/>
    <path id="Path_67905" data-name="Path 67905" d="M154.43,315.771a.352.352,0,0,1-.174-.658l1.264-.733a.357.357,0,0,1,.47.132.352.352,0,0,1-.132.47l-1.25.742A.353.353,0,0,1,154.43,315.771Z" transform="translate(8589.482 11730.908)" fill="#4f5d75"/>
    <path id="Path_67906" data-name="Path 67906" d="M509.459,111.077a.352.352,0,0,1-.305-.174.357.357,0,0,1,.127-.47l1.269-.728h0a.348.348,0,0,1,.47.127.352.352,0,0,1-.127.47l-1.269.728h0a.328.328,0,0,1-.165.047Z" transform="translate(8253.365 11924.682)" fill="#4f5d75"/>
    <path id="Path_67907" data-name="Path 67907" d="M439.456,31.315a.4.4,0,0,1-.174-.047.357.357,0,0,1-.132-.47l.733-1.278a.348.348,0,0,1,.47-.132.352.352,0,0,1,.132.47l-.738,1.278A.357.357,0,0,1,439.456,31.315Z" transform="translate(8319.637 12000.718)" fill="#4f5d75"/>
    <path id="Path_67908" data-name="Path 67908" d="M268.373,460.576h-7.517a1.109,1.109,0,0,1,0-2.213h7.517a1.109,1.109,0,1,1,0,2.213Zm-7.517-1.508a.4.4,0,0,0,0,.8h7.517a.4.4,0,1,0,0-.8Z" transform="translate(8489.377 11594.56)" fill="#4f5d75"/>
    <path id="Path_67909" data-name="Path 67909" d="M278.445,488.881h-6.052a1.109,1.109,0,1,1,0-2.213h6.052a1.109,1.109,0,0,1,0,2.213Zm-6.052-1.508a.4.4,0,1,0,0,.8h6.052a.4.4,0,0,0,.4-.4.4.4,0,0,0-.4-.4Z" transform="translate(8478.591 11567.763)" fill="#4f5d75"/>
    <path id="Path_67910" data-name="Path 67910" d="M313.681,517.42a2.044,2.044,0,0,1-2.044-2.044.357.357,0,0,1,.353-.352h3.383a.352.352,0,0,1,.353.352,2.044,2.044,0,0,1-2.044,2.044Zm-1.292-1.691a1.339,1.339,0,0,0,2.584,0Z" transform="translate(8440.319 11540.916)" fill="#4f5d75"/>
    <path id="Path_67911" data-name="Path 67911" d="M285.976,235.015H282.6a1.565,1.565,0,0,1-1.565-1.56v-2.133a.352.352,0,0,1,.7,0v2.133h0a.86.86,0,0,0,.86.855h3.378a.855.855,0,0,0,.855-.855v-2.133a.352.352,0,1,1,.7,0v2.133h0a1.56,1.56,0,0,1-1.56,1.56Z" transform="translate(8469.293 11809.836)" fill="#4f5d75"/>
    <path id="Path_67912" data-name="Path 67912" d="M243.73,172.058a2.7,2.7,0,0,1-1-.188l-4-1.569a.836.836,0,0,1,0-1.56l4-1.569h0a2.7,2.7,0,0,1,1.992,0l5.168,2.02a.357.357,0,0,1,.225.329.352.352,0,0,1-.225.329l-5.168,2.025h0a2.7,2.7,0,0,1-.991.183Zm0-4.374h0a1.993,1.993,0,0,0-.738.141l-4,1.569h0a.122.122,0,0,0-.084.122.127.127,0,0,0,.084.127l4,1.569h0a2.011,2.011,0,0,0,1.48,0l4.313-1.7-4.313-1.691a2.036,2.036,0,0,0-.742-.141Z" transform="translate(8509.847 11870.415)" fill="#4f5d75"/>
    <path id="Path_67913" data-name="Path 67913" d="M448.858,210.756a.348.348,0,0,1-.352-.352v-2.1a.352.352,0,1,1,.7,0v2.1A.352.352,0,0,1,448.858,210.756Z" transform="translate(8310.742 11831.628)" fill="#4f5d75"/>
  </g>
</svg>
