<svg xmlns="http://www.w3.org/2000/svg" width="20.001" height="20" viewBox="0 0 20.001 20">
  <g id="Group_5379" data-name="Group 5379" transform="translate(19532.883 15817.659)" opacity="0.7">
    <g id="Group_5375" data-name="Group 5375" transform="translate(-19532.883 -15817.659)">
      <g id="Group_5374" data-name="Group 5374">
        <path id="Path_62447" data-name="Path 62447" d="M88.1,79.082a8.052,8.052,0,0,1,.641.728l-.178-.231a7.686,7.686,0,0,1,.963,1.65c-.039-.092-.078-.183-.114-.272a7.57,7.57,0,0,1,.522,1.922l-.041-.3a7.725,7.725,0,0,1,0,1.977l.041-.3a7.57,7.57,0,0,1-.522,1.922c.039-.092.078-.183.114-.272a7.5,7.5,0,0,1-.963,1.65l.178-.231a7.669,7.669,0,0,1-1.368,1.368L87.6,88.5a7.684,7.684,0,0,1-1.65.963l.272-.114a7.571,7.571,0,0,1-1.922.522l.3-.041a7.728,7.728,0,0,1-1.977,0l.3.041a7.571,7.571,0,0,1-1.922-.522l.272.114a7.5,7.5,0,0,1-1.65-.963l.231.178A7.669,7.669,0,0,1,78.5,87.315l.179.231a7.683,7.683,0,0,1-.963-1.65c.039.092.078.183.114.272a7.571,7.571,0,0,1-.522-1.922l.041.3a7.725,7.725,0,0,1,0-1.977l-.041.3a7.571,7.571,0,0,1,.522-1.922c-.039.092-.078.183-.114.272a7.5,7.5,0,0,1,.963-1.65l-.179.231a7.67,7.67,0,0,1,1.368-1.368l-.231.178a7.684,7.684,0,0,1,1.65-.963l-.272.114a7.571,7.571,0,0,1,1.922-.522l-.3.041a7.725,7.725,0,0,1,1.977,0l-.3-.041a7.571,7.571,0,0,1,1.922.522l-.272-.114a7.5,7.5,0,0,1,1.65.963l-.231-.178a8.049,8.049,0,0,1,.728.641,1.149,1.149,0,0,0,1.62,0,1.152,1.152,0,0,0,.334-.81,1.206,1.206,0,0,0-.334-.81,8.574,8.574,0,0,0-4.558-2.38,9.586,9.586,0,0,0-1.4-.142,8.276,8.276,0,0,0-1.281.085,8.455,8.455,0,0,0-1.263.254,9.782,9.782,0,0,0-1.318.506,8.618,8.618,0,0,0-4.272,10.99,8.8,8.8,0,0,0,.632,1.275,9.44,9.44,0,0,0,.867,1.176,8.6,8.6,0,0,0,9.443,2.437,9.447,9.447,0,0,0,1.3-.6,9.269,9.269,0,0,0,1.181-.817,8.605,8.605,0,0,0,1.583-11.693,9.75,9.75,0,0,0-.92-1.091,1.149,1.149,0,0,0-1.62,0,1.152,1.152,0,0,0-.334.81A1.192,1.192,0,0,0,88.1,79.082Z" transform="translate(-75.001 -74.939)" fill="#323232"/>
      </g>
    </g>
    <g id="Group_5377" data-name="Group 5377" transform="translate(-19520.119 -15804.895)">
      <g id="Group_5376" data-name="Group 5376" transform="translate(0 0)">
        <path id="Path_62448" data-name="Path 62448" d="M633.2,634.754l1.67,1.67,2.663,2.663.613.613a1.149,1.149,0,0,0,1.62,0,1.153,1.153,0,0,0,.334-.81,1.2,1.2,0,0,0-.334-.81l-1.67-1.67-2.663-2.664-.613-.613a1.149,1.149,0,0,0-1.62,0,1.152,1.152,0,0,0-.334.81,1.181,1.181,0,0,0,.334.81Z" transform="translate(-632.862 -632.8)" fill="#323232"/>
      </g>
    </g>
  </g>
</svg>
