<svg id="Group_7533" data-name="Group 7533" xmlns="http://www.w3.org/2000/svg" width="21.249" height="21.249" viewBox="0 0 21.249 21.249">
  <g id="Group_22" data-name="Group 22" transform="translate(0 0)">
    <path id="Path_23" data-name="Path 23" d="M815.06,875.248a10.624,10.624,0,1,1,10.624-10.624A10.636,10.636,0,0,1,815.06,875.248Zm0-20.49a9.865,9.865,0,1,0,9.865,9.865A9.876,9.876,0,0,0,815.06,854.759Z" transform="translate(-804.436 -854)" fill="#ff5976"/>
  </g>
  <path id="Path_24" data-name="Path 24" d="M814.965,871.271h-.014a.758.758,0,0,1-.562-.265l-3.725-4.347a.759.759,0,0,1,1.152-.987l3.171,3.7,6.872-7.445a.759.759,0,0,1,1.115,1.03l-7.451,8.072A.759.759,0,0,1,814.965,871.271Z" transform="translate(-805.894 -855.852)" fill="#ff5976"/>
</svg>
