<svg xmlns="http://www.w3.org/2000/svg" width="18.602" height="21.999" viewBox="0 0 18.602 21.999">
  <g id="Group_9154" data-name="Group 9154" opacity="0.8">
    <path id="Path_63637" data-name="Path 63637" d="M315.84,357.916c0,.02,0,.037,0,.056,0-.086,0-.029,0,0l-.015.054c0,.012-.027.066-.007.022s-.039.061-.049.081-.042.049,0,0l-.059.066a.91.91,0,0,1-.091.081c.056-.044-.037.022-.056.034l-.118.064c-.1.049.037-.012-.025.01l-.083.029c-.052.017-.105.029-.159.042l-.074.015c-.061.01.049,0-.015,0a1.92,1.92,0,0,1-.375,0c.056.007-.081-.017-.093-.02-.049-.01-.1-.024-.145-.039-.012,0-.137-.056-.081-.029-.052-.025-.1-.051-.152-.081l-.056-.037c-.086-.056.03.029-.015-.012s-.061-.056-.091-.088c-.015-.015-.051-.071-.01-.007-.01-.017-.022-.032-.032-.049l-.029-.051c-.032-.059.007.049-.017-.049a.35.35,0,0,1-.01-.108c0-.066,0,0,0,.015,0-.017.007-.037.012-.054a.347.347,0,0,0,.015-.054c.022-.081-.029.037,0,0s.042-.076.066-.11c-.049.071.034-.034.049-.049s.12-.093.056-.052a1.027,1.027,0,0,1,.11-.069l.059-.032s.1-.044.037-.02a1.8,1.8,0,0,1,.277-.081c.025,0,.049-.01.074-.012-.061.007.02,0,.034,0,.059,0,.12,0,.182,0a1.217,1.217,0,0,1,.643.189.6.6,0,0,1,.064.044c-.044-.034.039.039.039.039l.049.051c.049.052-.01-.029.027.037.01.02.022.039.034.059.032.059,0-.017.007.02s.015.054.022.079c-.01-.064,0,0,0,.034a.368.368,0,1,0,.736,0,1.413,1.413,0,0,0-1.268-1.251,1.958,1.958,0,0,0-1.712.461,1.147,1.147,0,0,0-.341.736,1.116,1.116,0,0,0,.353.859,1.975,1.975,0,0,0,1.749.442,1.4,1.4,0,0,0,1.222-1.241.369.369,0,0,0-.738,0Z" transform="translate(-305.616 -342.195)" fill="#323232"/>
    <path id="Path_63638" data-name="Path 63638" d="M185.374,465.1H170.451a.99.99,0,0,0-.208,0s-.01,0-.012,0l.071.029a.1.1,0,0,1,.1.1c.01.025.02.049.029.071a.081.081,0,0,0,0-.025,2.665,2.665,0,0,0,0-.37v-1.124c0-.052,0-.106,0-.157a.183.183,0,0,0,0-.037c.02.051-.115.213-.2.2a.156.156,0,0,0,.034,0c.086,0,.172,0,.258,0h14.771a.364.364,0,0,0,.074,0s.01,0,.012,0c.027,0,0-.01-.071-.029l-.071-.029-.059-.145s0,.025,0,.029c-.012.123,0,.253,0,.375v1.1c0,.054,0,.108,0,.159a.106.106,0,0,0,0,.039v.007c.01-.025.02-.049.029-.071.01-.079.069-.123.169-.125a.376.376,0,0,0-.368.368.371.371,0,0,0,.368.368.56.56,0,0,0,.532-.594V463.7a.6.6,0,0,0-.27-.574.587.587,0,0,0-.287-.071c-.081,0-.162,0-.243,0H171.022c-.253,0-.508,0-.761,0a.558.558,0,0,0-.564.6V465.2a.582.582,0,0,0,.326.589.774.774,0,0,0,.324.044h15.029a.372.372,0,0,0,.368-.368.38.38,0,0,0-.37-.37Z" transform="translate(-168.502 -443.838)" fill="#323232"/>
    <path id="Path_63639" data-name="Path 63639" d="M273.288,38.576c0,.086,0,.172-.01.26,0,.039-.007.081-.01.12l-.007.069c.007-.054,0-.007,0,.022a3.424,3.424,0,0,1-.118.5c-.025.081-.054.162-.083.24-.007.015-.012.032-.02.047-.022.054.022-.047,0,0s-.042.093-.064.137a3.7,3.7,0,0,1-.25.439c-.044.066-.088.13-.137.191.037-.052-.032.039-.047.056-.029.034-.059.069-.088.1a3.426,3.426,0,0,1-.371.361c-.029.025-.059.049-.091.074.056-.044-.047.034-.059.042-.069.049-.137.093-.209.137s-.142.083-.216.123l-.105.052a.463.463,0,0,1-.061.027c-.056.025.078-.029-.02.007a3.184,3.184,0,0,1-.478.15c-.044.01-.088.02-.133.027l-.086.015-.02,0-.069.007c-.047,0-.091.007-.137.01a2.3,2.3,0,0,1-.26,0l-.12-.007-.069-.007s-.1-.012-.052,0l-.086-.015c-.044-.007-.088-.017-.132-.027-.086-.02-.174-.044-.258-.071s-.147-.052-.218-.079c-.012,0-.064-.029,0,0-.02-.01-.039-.017-.061-.027l-.12-.059a3.279,3.279,0,0,1-.424-.26c-.012-.007-.113-.086-.059-.042l-.091-.074c-.069-.056-.135-.118-.2-.179s-.118-.12-.174-.182c-.027-.029-.051-.059-.076-.088l-.032-.039s-.059-.074-.034-.042-.017-.022-.022-.029l-.03-.042c-.027-.037-.051-.074-.076-.11-.049-.076-.1-.152-.14-.231s-.076-.14-.11-.209c-.02-.042-.039-.081-.056-.123,0,0-.022-.054-.007-.017s-.017-.042-.02-.052a3.757,3.757,0,0,1-.152-.488c-.02-.083-.037-.167-.049-.25,0-.01-.012-.081,0-.037s0-.015,0-.02l-.015-.155a3.529,3.529,0,0,1,0-.535c0-.039.007-.079.012-.118s0,.007,0,.015c0-.022.007-.044.01-.066.015-.088.032-.174.054-.263a3.482,3.482,0,0,1,.152-.469c-.027.071.022-.047.027-.061.017-.034.032-.069.049-.1.039-.076.081-.152.125-.226s.081-.128.123-.189l.037-.052c0-.007.047-.061.02-.027s.007-.01.01-.015l.052-.061a3.414,3.414,0,0,1,.346-.358c.056-.049.113-.1.172-.145-.059.047.042-.029.054-.039.034-.025.071-.049.108-.074a3.4,3.4,0,0,1,.424-.236c.015-.007.132-.056.061-.027.034-.015.071-.027.108-.042q.125-.044.25-.081t.243-.059l.115-.022.049-.007c.105-.017-.042,0,.02,0a3.5,3.5,0,0,1,.532-.02c.079,0,.16.01.238.017s.017,0,0,0l.066.01c.044.007.088.015.132.025a3.514,3.514,0,0,1,.493.14c.037.012.071.027.108.042-.064-.027.027.012.047.022.078.037.157.076.233.118s.14.081.208.125c.032.02.064.042.093.064s.125.093.069.047a2.988,2.988,0,0,1,.358.324c.056.059.11.118.162.179.025.029.049.059.071.088-.044-.056.027.037.039.054a3.321,3.321,0,0,1,.258.429c.017.034.034.069.049.1.007.015.056.132.027.061.029.076.059.152.083.231a3.22,3.22,0,0,1,.12.5c0,.022.007.044.01.066,0,0-.007-.059,0-.015s.007.079.012.118a1.56,1.56,0,0,1,.02.28.368.368,0,1,0,.736,0,3.759,3.759,0,0,0-7.507-.275,4.062,4.062,0,0,0,2.169,3.852,3.52,3.52,0,0,0,2.338.3,3.991,3.991,0,0,0,2.951-3.263,4.672,4.672,0,0,0,.052-.613.372.372,0,0,0-.368-.368.376.376,0,0,0-.37.368Z" transform="translate(-260.966 -34.817)" fill="#323232"/>
    <path id="Path_63640" data-name="Path 63640" d="M160.928,292.988c-.093.574-.184,1.148-.277,1.722q-.269,1.663-.535,3.324-.177,1.1-.356,2.208a.265.265,0,0,0-.01.061s.155-.169.189-.123a.354.354,0,0,0-.088,0H144.8a.232.232,0,0,0-.042,0h-.007c.012,0,.218.071.191.13.012-.025-.017-.113-.022-.137-.128-.8-.258-1.6-.385-2.4q-.265-1.641-.527-3.285l-.184-1.141c-.015-.1-.032-.194-.047-.292a.247.247,0,0,0-.01-.059v0c0-.022,0,0,0,.066a.156.156,0,0,1-.12.179c-.459.194-.083.025-.069.032s.064,0,.083,0h17.266c.049,0,.1,0,.145,0a.183.183,0,0,0,.037,0h.01c.027,0,0-.01-.074-.032s-.137-.066-.132-.147a.368.368,0,0,0,.736,0,.54.54,0,0,0-.552-.557H143.812c-.078,0-.159,0-.238,0a.543.543,0,0,0-.518.655.189.189,0,0,1,0,.037c.015.086.027.172.042.26q.217,1.358.437,2.716.261,1.619.52,3.238c.049.312.1.623.15.935.007.047.012.093.022.137a.548.548,0,0,0,.545.41c.422.01.846,0,1.271,0h13.9a.542.542,0,0,0,.525-.461c.042-.255.081-.508.123-.763q.254-1.571.505-3.14.232-1.45.466-2.9c.025-.157.049-.312.076-.469a.381.381,0,0,0-.258-.454.373.373,0,0,0-.454.258Z" transform="translate(-143.048 -280.969)" fill="#323232"/>
    <path id="Path_63641" data-name="Path 63641" d="M233.1,229.567h-9.465c-.434,0-.878-.025-1.312,0h-.02c.118.155.235.312.356.466l.1-.523c.012-.059.025-.118.042-.177s.027-.088.042-.132c.007-.02.052-.135.025-.074a2.287,2.287,0,0,1,.255-.444c.042-.059.015-.02,0-.007l.044-.052.079-.088a2.05,2.05,0,0,1,.2-.186c.007,0,.061-.049.029-.025s.015-.01.017-.012c.037-.027.074-.052.113-.076a2.3,2.3,0,0,1,.24-.132l.064-.029c-.007,0-.047.02-.007,0s.076-.029.115-.042.076-.025.115-.034l.186-.054,1.06-.3.542-.155a2.579,2.579,0,0,1,.635-.132c.724-.017,1.45,0,2.174,0a4.008,4.008,0,0,1,1.079.228l.954.272.5.142.1.029c.039.012.076.027.115.042.01,0,.064.027.007,0l.079.037a2.036,2.036,0,0,1,.226.125c.034.022.066.044.1.066l.042.029c-.052-.039.01.007.02.017a2.092,2.092,0,0,1,.186.174l.081.088.044.051c.025.029-.022-.034.015.02a2.42,2.42,0,0,1,.255.444c-.027-.061.02.059.025.074l.037.115a1.769,1.769,0,0,1,.047.2c.02.1.039.194.056.289l.044.228a.369.369,0,1,0,.711-.2l-.1-.525a2.569,2.569,0,0,0-.437-1,2.717,2.717,0,0,0-.9-.8,3.3,3.3,0,0,0-.675-.258l-1.124-.321a6.666,6.666,0,0,0-1.266-.309c-.353-.029-.714-.007-1.067-.007h-1.232a4.666,4.666,0,0,0-1.29.265l-1,.287c-.145.042-.29.081-.434.125a2.748,2.748,0,0,0-1.035.569,2.556,2.556,0,0,0-.67.925,4.006,4.006,0,0,0-.226.81c-.015.081-.032.159-.047.24a.373.373,0,0,0,.356.466h9.465c.437,0,.876.012,1.313,0h.02a.372.372,0,0,0,.368-.368.382.382,0,0,0-.373-.37Z" transform="translate(-218.407 -218.006)" fill="#323232"/>
  </g>
</svg>
