<svg xmlns="http://www.w3.org/2000/svg" width="19.423" height="22" viewBox="0 0 19.423 22">
  <path id="Path_67823" data-name="Path 67823" d="M203.3,129.232h.808v-6.29a.716.716,0,0,1,.722-.722H212.4a.692.692,0,0,1,.722.722v6.29H216.9V117.416l-8.288-7.055-8.246,7.055v11.815Zm1.53,1.445h-5.185a.692.692,0,0,1-.722-.722V117.076a.619.619,0,0,1,.3-.552l8.925-7.693a.711.711,0,0,1,.935.042l9.01,7.693a.664.664,0,0,1,.255.51v12.878a.716.716,0,0,1-.722.722H212.4a.716.716,0,0,1-.722-.722v-6.333h-6.12v6.333a.692.692,0,0,1-.722.722Z" transform="translate(-198.923 -108.677)" fill="#323232" opacity="0.8"/>
</svg>
