<svg xmlns="http://www.w3.org/2000/svg" width="25.894" height="21" viewBox="0 0 25.894 21">
  <path id="Path_68257" data-name="Path 68257" d="M102.8,68.874A12.943,12.943,0,0,1,97.2,79.53l-.7-1.012a11.716,11.716,0,0,0,.389-19l.742-.984A12.926,12.926,0,0,1,102.8,68.875ZM89.852,66.655a2.367,2.367,0,1,1-2.367,2.367A2.367,2.367,0,0,1,89.852,66.655Zm0,1.235a1.133,1.133,0,1,0,1.133,1.133,1.132,1.132,0,0,0-1.133-1.133Zm7.566,1.049a7.569,7.569,0,0,1-3.27,6.226l-.7-1.012a6.336,6.336,0,0,0,.209-10.274l.742-.984a7.554,7.554,0,0,1,3.017,6.045Zm-15.132,0A7.554,7.554,0,0,1,85.3,62.894l.742.984a6.336,6.336,0,0,0,.209,10.274l-.7,1.012a7.568,7.568,0,0,1-3.27-6.226Zm-5.381-.064A12.927,12.927,0,0,1,82.069,58.53l.742.984a11.716,11.716,0,0,0,.389,19l-.7,1.012a12.94,12.94,0,0,1-5.6-10.655Z" transform="translate(-76.905 -58.53)" fill="#323232" opacity="0.8"/>
</svg>
